<?xml version="1.0" encoding="utf-8"?>
<!-- Generator: Adobe Illustrator 23.1.1, SVG Export Plug-In . SVG Version: 6.00 Build 0)  -->
<svg version="1.1" id="Layer_1" xmlns="http://www.w3.org/2000/svg" xmlns:xlink="http://www.w3.org/1999/xlink" x="0px" y="0px"
	 viewBox="0 0 30.8 23.1" style="enable-background:new 0 0 30.8 23.1;" xml:space="preserve">
<style type="text/css">
	.st0{fill:#FFFFFF;}
</style>
<path id="Icon_metro-credit-card" class="st0" d="M28,0H2.9C1.3,0,0,1.3,0,2.9v17.4c0,1.6,1.3,2.9,2.9,2.9H28c1.6,0,2.9-1.3,2.9-2.9
	V2.9C30.8,1.3,29.6,0,28,0z M2.9,1.9H28c0.5,0,1,0.4,1,1v2.9h-27V2.9C1.9,2.4,2.4,1.9,2.9,1.9L2.9,1.9z M28,21.2H2.9
	c-0.5,0-1-0.4-1-1v-8.7h27v8.7C28.9,20.8,28.5,21.2,28,21.2z M3.9,15.4h1.9v3.9H3.9L3.9,15.4z M7.7,15.4h1.9v3.9H7.7L7.7,15.4z
	 M11.6,15.4h1.9v3.9h-1.9L11.6,15.4z"/>
</svg>
