<?xml version="1.0" encoding="utf-8"?>
<!-- Generator: Adobe Illustrator 23.1.1, SVG Export Plug-In . SVG Version: 6.00 Build 0)  -->
<svg version="1.1" id="Layer_1" xmlns="http://www.w3.org/2000/svg" xmlns:xlink="http://www.w3.org/1999/xlink" x="0px" y="0px"
	 viewBox="0 0 26.4 30.9" style="enable-background:new 0 0 26.4 30.9;" xml:space="preserve">
<style type="text/css">
	.st0{fill:#FFFFFF;}
</style>
<path id="Icon_metro-file-pdf" class="st0" d="M25.3,6.5c0.4,0.4,0.6,0.8,0.8,1.3c0.2,0.5,0.3,1,0.3,1.5v19.8c0,0.9-0.7,1.6-1.6,1.7
	c0,0,0,0,0,0H1.7c-0.9,0-1.6-0.7-1.7-1.6c0,0,0,0,0,0V1.7C0,0.7,0.7,0,1.6,0c0,0,0,0,0,0h15.4c0.5,0,1,0.1,1.5,0.3
	c0.5,0.2,0.9,0.5,1.3,0.8L25.3,6.5z M17.6,2.3v6.5h6.5c-0.1-0.3-0.2-0.5-0.4-0.7l-5.4-5.4C18.1,2.5,17.9,2.4,17.6,2.3L17.6,2.3z
	 M24.2,28.6V11h-7.2c-0.9,0-1.6-0.7-1.7-1.6c0,0,0,0,0,0V2.2H2.2v26.4L24.2,28.6L24.2,28.6z M15.4,18.4c0.5,0.4,0.9,0.7,1.4,1
	c0.7-0.1,1.3-0.1,2-0.1c1.7,0,2.7,0.3,3,0.8c0.2,0.3,0.2,0.6,0,0.9c0,0,0,0,0,0l0,0v0c-0.1,0.4-0.5,0.7-1.2,0.7
	c-0.7,0-1.3-0.1-2-0.3c-0.8-0.2-1.5-0.5-2.2-0.9c-2.3,0.2-4.6,0.7-6.7,1.4c-1.8,3-3.1,4.5-4.2,4.5c-0.2,0-0.3,0-0.5-0.1l-0.4-0.2
	c0,0,0,0-0.1-0.1c-0.1-0.2-0.2-0.4-0.1-0.6c0.2-0.6,0.5-1.1,1-1.6c0.7-0.7,1.4-1.2,2.3-1.7c0.1-0.1,0.3-0.1,0.4,0c0,0,0,0,0,0.1
	c0,0,0,0,0,0.1c0.6-1,1.2-2.1,1.8-3.4c0.7-1.4,1.3-3,1.8-4.5c-0.3-0.9-0.4-1.8-0.5-2.7c-0.1-0.7,0-1.5,0.1-2.2
	C11.4,9,11.7,8.8,12,8.8h0.4c0.2,0,0.5,0.1,0.6,0.3c0.2,0.3,0.3,0.8,0.2,1.2c0,0.1,0,0.1-0.1,0.1c0,0,0,0.1,0,0.1V11
	c0,1.1-0.1,2.2-0.2,3.3C13.3,15.9,14.2,17.3,15.4,18.4L15.4,18.4z M5.5,25.5c1-0.7,1.8-1.6,2.4-2.7c-0.5,0.4-1.1,0.9-1.5,1.4
	C6,24.6,5.7,25.1,5.5,25.5z M12.3,9.7c-0.2,0.7-0.2,1.5,0,2.3c0-0.1,0.1-0.3,0.1-0.8c0,0,0-0.3,0.1-0.7c0-0.1,0-0.1,0.1-0.1
	c0,0,0,0,0,0c0,0,0,0,0,0s0,0,0,0C12.6,10,12.5,9.8,12.3,9.7C12.3,9.6,12.3,9.6,12.3,9.7L12.3,9.7L12.3,9.7z M10.2,21.1
	c1.6-0.6,3.2-1.1,4.9-1.4c-0.1-0.1-0.2-0.1-0.2-0.2c-0.1-0.1-0.2-0.1-0.3-0.2c-0.9-0.8-1.7-1.9-2.2-3c-0.4,1.2-0.9,2.3-1.4,3.4
	C10.6,20.3,10.4,20.7,10.2,21.1z M21.3,20.8c-0.7-0.4-1.6-0.5-2.4-0.4c0.7,0.3,1.4,0.4,2.1,0.5C21.1,20.9,21.2,20.8,21.3,20.8
	C21.3,20.8,21.3,20.8,21.3,20.8L21.3,20.8z"/>
</svg>
